HIERARCHY
ROOT Hips
{
   OFFSET 0.00000 0.00000 0.00000
   CHANNELS 6 Xposition Yposition Zposition Zrotation Xrotation Yrotation
   JOINT RightUpLeg
   {
      OFFSET -9.840380 -9.533777 0.111817
      CHANNELS 3 Zrotation Xrotation Yrotation
      JOINT RightLeg
      {
         OFFSET 0.000000 -48.864969 1.509970
         CHANNELS 3 Zrotation Xrotation Yrotation
         JOINT RightFoot
         {
            OFFSET 0.278904 -46.301641 -1.606649
            CHANNELS 3 Zrotation Xrotation Yrotation
            JOINT RightToes
            {
               OFFSET 0.044000 -4.856599 9.349010
               CHANNELS 3 Zrotation Xrotation Yrotation
               End Site
               {
                  OFFSET -0.088000 -0.151193 10.757769
               }
            }
         }
      }
   }
   JOINT Spine
   {
      OFFSET 0.000000 13.079551 0.000000
      CHANNELS 3 Zrotation Xrotation Yrotation
      JOINT Spine1
      {
         OFFSET 0.000000 28.223142 0.140429
         CHANNELS 3 Zrotation Xrotation Yrotation
         JOINT HEad
         {
            OFFSET 0.000000 9.607577 0.012475
            CHANNELS 3 Zrotation Xrotation Yrotation
            End Site
            {
               OFFSET -0.319000 14.051621 2.765345
            }
         }
         JOINT LeftShoulder1
         {
            OFFSET 9.889000 -0.398477 -0.242000
            CHANNELS 3 Zrotation Xrotation Yrotation
            JOINT LeftArm
            {
               OFFSET 11.310971 -0.003718 0.354335
               CHANNELS 3 Zrotation Xrotation Yrotation
               JOINT LeftForeArm
               {
                  OFFSET 36.043591 0.109058 -1.566774
                  CHANNELS 3 Zrotation Xrotation Yrotation
                  JOINT LeftHand
                  {
                     OFFSET 30.320732 0.093898 1.124376
                     CHANNELS 3 Zrotation Xrotation Yrotation
                     End Site
                     {
                        OFFSET 18.418731 -0.660000 1.653201
                     }
                  }
               }
            }
         }
         JOINT RightShoulder
         {
            OFFSET -9.889000 -0.398477 -0.242000
            CHANNELS 3 Zrotation Xrotation Yrotation
            JOINT RightArm
            {
               OFFSET -11.310971 -0.003718 0.354335
               CHANNELS 3 Zrotation Xrotation Yrotation
               JOINT RightForeArm
               {
                  OFFSET -36.186809 0.109058 -1.566774
                  CHANNELS 3 Zrotation Xrotation Yrotation
                  JOINT RightHand
                  {
                     OFFSET -30.241313 0.093898 1.124376
                     CHANNELS 3 Zrotation Xrotation Yrotation
                     End Site
                     {
                        OFFSET -18.294322 -0.660000 1.653201
                     }
                  }
               }
            }
         }
      }
   }
   JOINT LeftUpLeg
   {
      OFFSET 9.840380 -9.533777 0.111817
      CHANNELS 3 Zrotation Xrotation Yrotation
      JOINT LeftLeg
      {
         OFFSET 0.000000 -48.864969 1.509970
         CHANNELS 3 Zrotation Xrotation Yrotation
         JOINT LeftFoot
         {
            OFFSET -0.278904 -46.301641 -1.606649
            CHANNELS 3 Zrotation Xrotation Yrotation
            JOINT LeftToes
            {
               OFFSET -0.044000 -4.856599 9.349010
               CHANNELS 3 Zrotation Xrotation Yrotation
               End Site
               {
                  OFFSET 0.088000 -0.052193 10.757769
               }
            }
         }
      }
   }
}
MOTION
Frames: 16
Frame Time: 0.016667
-207.063824 101.825694 -479.936402 24.771990 -35.433444 33.721559 -22.544969 37.855306 29.068384 27.618181 11.514978 -50.419709 -3.576051 20.417006 11.821521 -7.855514 -52.212121 -40.408212 -26.632135 52.530637 129.056984 21.862353 -18.737910 -135.212651 -23.422218 23.080867 -1.459185 57.511880 63.347218 -45.824545 373.430156 -92.428060 353.547530 -8.853531 -49.626614 -52.263815 -29.381257 7.178421 -67.966707 -45.240362 62.770504 93.554419 102.640319 192.640554 187.138919 7.364102 252.560069 76.946090 17.804258 6.333284 55.468021 8.451501 14.869009 13.226017 3.298960 29.706296 78.553719 -50.142119 45.789540 1.131752 17.704168 -7.897622 -59.833297
-206.365468 101.462096 -478.993447 25.370041 -34.720368 34.310301 -23.618772 38.199773 29.577318 27.907943 11.538669 -50.692455 -3.097985 20.665721 11.811970 -7.649520 -52.411347 -40.510808 -25.088478 52.800931 128.422282 21.328690 -18.744204 -135.596426 -23.162840 22.597708 -1.962360 57.039398 63.328660 -45.066623 374.014848 -92.597646 353.236593 -8.619297 -50.016195 -51.834080 -29.986965 7.087335 -64.309967 -45.430566 63.209385 93.568387 103.128801 190.365104 187.426046 6.434226 250.286572 74.618239 17.212700 5.864252 55.322367 8.027698 13.426229 13.121582 2.147898 27.429234 75.353338 -43.860302 45.532138 -0.968062 17.921189 -8.044525 -60.883268
-205.447995 100.802229 -477.801087 25.451634 -34.997828 34.871476 -24.513781 39.071397 30.382003 29.068056 11.851623 -50.972674 -2.472194 21.105479 12.009365 -7.351017 -52.744415 -40.518181 -21.876608 51.921452 127.789561 20.416231 -18.392014 -136.041809 -23.060529 21.961001 -2.389329 56.070290 63.244266 -43.804510 375.570519 -91.500861 351.997214 -9.673457 -50.895138 -52.391342 -30.615534 4.743213 -57.408655 -45.865605 64.297762 94.502914 102.448924 186.073464 187.034349 5.574936 246.609963 73.599981 16.892338 6.078415 53.730701 8.318046 14.057534 13.107865 2.782083 25.027408 71.477151 -54.261885 46.441000 0.250156 19.135852 -6.020527 -60.584461
-204.308793 100.079764 -476.322091 26.419433 -35.213846 36.439414 -25.542589 40.856648 31.032896 29.713953 11.670322 -51.246353 -2.017470 21.516575 11.767710 -7.026076 -53.516373 -40.598672 -20.238002 52.424885 127.598712 19.353179 -18.020532 -137.021818 -22.746968 21.174855 -2.777050 54.239331 64.034041 -42.235895 376.313917 -90.949412 350.868402 -11.455755 -51.275695 -54.405930 -30.871765 2.826382 -54.990604 -45.353569 65.472540 94.914515 101.967655 179.672115 187.151268 5.226909 241.238757 73.838757 17.114588 6.796964 52.613879 7.827579 12.795742 13.080993 2.668943 24.584472 69.466056 -48.050729 45.907201 -1.430212 19.569776 -5.776003 -61.750859
-202.929055 99.103259 -474.674752 27.581755 -35.599759 37.461317 -27.282397 43.082873 31.673216 30.035234 11.080967 -51.869881 -1.784321 21.848539 11.242431 -6.662806 -54.516811 -40.621539 -17.826141 52.913544 126.988025 17.398589 -18.253119 -138.051264 -22.096815 19.822186 -3.129190 52.604864 64.360087 -40.104839 377.390327 -89.640400 349.117879 -14.489778 -51.718353 -55.586607 -30.731183 1.093377 -55.989424 -45.580103 67.351539 94.759367 102.241703 171.120500 186.820263 4.634783 234.399935 73.067547 16.894854 6.716668 51.300940 6.713276 12.941106 12.047542 3.081367 23.738237 69.017880 -51.009130 46.051604 -1.910152 20.387674 -5.140968 -62.777478
-201.384770 98.009823 -472.951806 28.176914 -35.559884 39.081509 -28.456327 44.906899 32.642181 30.818357 10.595032 -52.276905 -1.983871 22.367772 10.696678 -6.580190 -55.841345 -40.269921 -15.876671 53.986580 127.674267 15.457862 -17.958014 -139.330709 -21.641256 17.047189 -3.322619 49.896902 64.863533 -37.107014 377.926524 -89.241339 349.266668 -16.758993 -51.266157 -58.195370 -30.537291 0.538086 -59.964744 -44.265930 68.150241 93.768266 103.073688 160.653699 185.423503 4.635344 225.016033 73.824284 17.347601 7.379510 50.888662 4.709071 11.341491 10.592453 5.141582 22.853152 68.882137 -54.531810 46.429270 -1.872712 21.186552 -4.637171 -63.625200
-199.628178 96.937207 -471.134980 28.201243 -34.809291 39.708500 -29.886121 46.009756 33.757015 31.280661 9.764485 -52.498306 -2.761086 23.113603 9.944866 -6.847631 -57.647971 -39.565066 -14.002170 54.302900 128.882405 13.372255 -18.820200 -140.456748 -22.027464 12.796431 -3.243985 47.803760 64.677254 -35.190630 379.470776 -89.999770 349.899144 -18.757704 -49.097589 -59.783000 -30.374022 1.378466 -65.034958 -42.465076 68.802504 92.906904 104.659132 148.493135 182.434380 4.240447 214.005236 74.239218 17.335104 7.101687 52.063366 2.554406 9.306222 8.977721 6.873657 22.574392 69.679937 -54.265539 45.941314 -3.055737 21.529465 -5.119719 -64.898422
-197.810666 97.359780 -469.319527 27.219646 -34.836779 38.695501 -31.052639 46.321387 35.088563 31.621819 10.281787 -51.515254 -3.366390 24.496337 9.262046 -7.213880 -59.270613 -38.452333 -13.482930 53.197540 128.072700 11.727845 -22.455248 -142.800199 -21.942200 10.274228 -2.901347 44.213734 64.248734 -33.002306 378.625799 -92.904957 352.717116 -21.895920 -46.395925 -62.400458 -27.600081 4.150387 -73.223979 -41.961701 66.239086 91.354852 108.127577 130.183351 178.185292 2.094081 201.833920 71.269944 20.682404 9.460054 46.970593 1.038770 8.612337 7.288276 9.024693 22.981300 70.090322 -54.520704 44.897347 -4.278194 21.522679 -6.133997 -65.906920
-196.039826 97.329815 -467.703202 25.462074 -35.649192 36.645976 -32.746485 45.883032 36.592349 31.785846 11.216741 -48.564592 -0.443032 26.021798 8.836976 -7.894577 -60.859253 -36.699945 -12.875798 48.552226 127.754549 10.079906 -25.902347 -144.100763 -21.998692 11.027579 -2.185376 39.760345 64.267654 -33.615838 377.550427 -96.135630 353.569715 -25.669905 -42.493079 -64.000648 -24.442684 7.715440 -79.415477 -41.150582 62.798863 90.570535 114.714243 108.177110 173.143028 -2.443198 187.378440 65.103580 17.927906 8.330300 43.295234 0.269596 9.664757 6.037816 11.363488 22.906738 70.385031 -54.713206 43.842243 -4.951787 21.146539 -7.535930 -66.464851
-194.399487 97.210568 -466.389573 28.917399 -36.382936 39.890333 -37.547889 49.323938 38.228053 30.436617 11.962780 -44.366382 2.486408 27.462640 8.478097 -8.805891 -62.215428 -34.482190 -11.147248 47.497347 129.076601 10.615641 -22.927704 -144.301297 -21.285409 13.581526 -1.273716 37.179257 63.128160 -35.085056 379.760321 -100.649490 350.251172 -30.379257 -38.396550 -64.831206 -21.617808 10.601263 -85.727665 -41.436377 65.518296 94.031931 117.203328 97.966359 171.909277 -2.340911 180.409598 65.468292 11.794480 6.702768 37.394569 -2.470053 13.304114 4.130291 12.104320 23.710921 69.279483 -54.237518 44.048573 -5.382330 20.996925 -8.607881 -67.003760
-192.790563 96.965931 -465.226624 34.205478 -38.775950 46.180500 -42.055770 55.090260 38.352735 29.202597 13.966824 -39.801759 4.972169 30.081943 7.747939 -9.214420 -62.739372 -32.365415 -14.237106 54.703952 133.625438 14.031784 -20.876099 -142.451969 -16.403160 14.641067 0.193053 40.909158 58.483153 -27.985863 379.245543 -103.892293 349.564410 -27.956004 -36.541072 -64.283063 -31.907229 2.169049 -75.337506 -40.623418 61.499180 91.297335 112.614376 95.675972 178.346225 4.563573 173.503088 67.472051 2.381880 6.135043 38.074241 -4.446446 19.014963 2.625295 12.600652 25.385272 65.152833 -52.725208 44.206104 -6.143014 20.701363 -10.143220 -67.665407
-191.371552 96.923626 -464.330399 42.118020 -44.250689 51.310601 -49.348393 61.910330 37.204949 24.695080 17.309839 -35.541501 6.462693 32.686926 5.376447 -9.280849 -63.599293 -30.857388 -20.901977 54.529471 135.928838 9.458098 -17.600130 -147.378680 -7.925584 14.707281 2.326593 39.680336 57.723875 -28.166525 371.674634 -106.536061 347.019837 -26.170495 -33.542506 -59.765269 -32.537003 17.717039 -83.257609 -42.037157 49.162441 80.566623 109.058129 82.152265 195.382042 5.745009 167.064679 59.830176 1.225525 8.182617 39.764224 -5.279352 27.800977 1.990885 10.923066 27.144442 59.221319 -51.916401 44.610540 -6.937974 20.263377 -11.884644 -68.239040
-189.911286 96.962679 -463.722108 44.861239 -46.399507 55.536306 -50.499533 65.291943 33.615739 22.580441 19.712295 -29.416177 7.364210 34.800739 3.252746 -10.070000 -65.478981 -28.677447 -23.444898 57.476083 139.521681 9.991729 -16.835938 -143.174179 -1.401780 12.942876 6.162393 42.199084 55.445905 -26.306943 366.915276 -107.323924 339.636566 -21.007751 -28.097392 -57.596117 -46.097080 -2.729349 -68.729400 -41.637082 49.299144 78.092121 106.596324 70.266753 203.797368 6.884498 155.019121 54.255379 -1.872795 7.931087 39.572535 -4.571592 32.027597 2.558298 11.521554 27.542017 53.197202 -51.418958 44.533906 -7.387370 19.927692 -13.395939 -68.655026
-188.893907 97.220677 -463.475831 46.399206 -47.770838 57.663660 -51.610193 66.130445 29.623203 21.422321 23.654041 -19.344986 21.446686 35.069395 1.697431 -12.055806 -69.369949 -25.621843 -21.640548 59.805614 139.028118 9.350780 -15.556526 -141.402305 4.023358 10.833263 9.749392 42.599473 48.259484 -27.386815 366.970792 -106.150272 339.253010 -16.747900 -27.761053 -56.406523 -48.181418 2.999380 -74.089309 -41.359087 53.037717 79.864616 105.745358 61.573363 204.728199 7.931574 146.490510 52.678339 -3.318457 7.617502 39.323284 -5.053411 34.047892 4.329736 12.490567 28.553614 48.361298 -50.344228 43.929881 -7.135335 19.633210 -14.729171 -68.942283
-188.136689 97.296580 -463.662102 48.810605 -47.760528 61.435380 -51.663947 68.735540 25.943784 17.301952 25.374038 -7.291956 36.278068 37.228974 -0.453952 -12.499979 -71.076028 -24.083206 -22.461441 59.734526 138.259995 9.760223 -15.574752 -138.132120 8.210562 8.703188 13.083799 45.043472 44.747554 -25.771492 369.263113 -105.147682 344.476465 -13.170594 -24.242513 -55.453975 -51.995618 -7.074033 -68.994862 -39.992240 55.322299 79.481532 106.310084 55.083273 207.395825 6.343767 139.435634 52.472679 -5.053213 6.784514 39.693508 -4.820949 35.266271 7.759217 12.473719 30.063487 43.576457 -49.505088 42.233788 -7.149111 19.718717 -15.745049 -69.541762
-187.486169 98.001288 -464.188264 52.295200 -48.462043 65.812056 -50.813742 70.522420 20.458228 15.824703 28.791054 2.816991 28.339985 38.932778 -1.719805 -11.600526 -72.316342 -24.014981 -21.494283 60.024980 135.912800 12.315846 -16.236140 -135.023769 11.718824 9.079221 15.792543 46.705062 41.257262 -26.047913 373.720084 -103.829892 350.622816 -11.064469 -23.084532 -54.427076 -52.969545 -3.287697 -71.543889 -40.657777 57.479095 78.062881 105.548518 49.590882 210.059818 3.912993 136.067395 52.537118 -4.414856 7.078775 39.478166 -4.970005 37.965917 12.087257 13.642740 27.837548 37.175886 -50.595804 40.708375 -6.889710 20.555784 -15.901056 -70.368379
